<svg version="1.1" viewBox="0.0 0.0 959.9291338582677 958.6719160104986" fill="none" stroke="none" stroke-linecap="square" stroke-miterlimit="10" xmlns:xlink="http://www.w3.org/1999/xlink" xmlns="http://www.w3.org/2000/svg"><clipPath id="p.0"><path d="m0 0l959.92914 0l0 958.67194l-959.92914 0l0 -958.67194z" clip-rule="nonzero"/></clipPath><g clip-path="url(#p.0)"><path fill="#000000" fill-opacity="0.0" d="m0 0l959.92914 0l0 958.67194l-959.92914 0z" fill-rule="evenodd"/><defs><linearGradient id="p.1" gradientUnits="userSpaceOnUse" gradientTransform="matrix(36.846234814268094 0.0 0.0 36.846234814268094 0.0 0.0)" spreadMethod="pad" x1="13.026779568954051" y1="39.0633117674181" x2="39.08133374437444" y2="13.009420950339235"><stop offset="0.0" stop-color="#4b70dd"/><stop offset="0.67" stop-color="#8d58c5"/><stop offset="0.81" stop-color="#ae4cb9"/><stop offset="1.0" stop-color="#ce40ad"/></linearGradient></defs><path fill="url(#p.1)" d="m0 479.33597l0 0c0 -265.09668 214.90332 -480.0 480.0 -480.0l0 0c127.303894 0 249.3938 50.571285 339.41125 140.58875c90.017456 90.01747 140.58875 212.10735 140.58875 339.41125l0 0c0 265.09665 -214.90332 479.99997 -480.0 479.99997l0 0c-265.09668 0 -480.0 -214.90332 -480.0 -479.99997z" fill-rule="evenodd"/><path fill="#000000" fill-opacity="0.0" d="m373.65616 327.10498l588.78735 0l0 42.015747l-588.78735 0z" fill-rule="evenodd"/><path fill="#000000" fill-opacity="0.0" d="m67.338585 146.43832l825.3229 0l0 665.7953l-825.3229 0z" fill-rule="evenodd"/><path fill="#ffffff" d="m170.93385 667.4383l0 -373.3281l161.06252 0q62.40625 0 96.796875 25.0625q34.40625 25.0625 34.40625 70.9375q0 30.390625 -14.140625 51.203125q-14.125 20.796875 -38.390625 31.46875q-24.265625 10.65625 -53.0625 10.65625l9.0625 -12.796875q35.734375 0 61.59375 10.9375q25.875 10.921875 40.265625 32.53122q14.40625 21.59375 14.40625 53.59375q0 47.46875 -34.9375 73.609375q-34.921875 26.125 -105.328125 26.125l-171.73439 0zm39.46875 -32.53125l131.73439 0q49.0625 0 75.1875 -16.796875q26.140625 -16.796875 26.140625 -53.609375q0 -36.265625 -26.140625 -53.06247q-26.125 -16.796875 -75.1875 -16.796875l-136.00002 0l0 -32.53125l123.20314 0q44.796875 0 69.59375 -17.0625q24.796875 -17.078125 24.796875 -50.671875q0 -34.140625 -24.796875 -50.9375q-24.796875 -16.796875 -69.59375 -16.796875l-118.937515 0l0 308.2656zm397.8637 -159.99997l197.32812 0l0 34.140625l-197.32812 0l0 -34.140625zm4.265625 192.53122l-39.46875 0l0 -373.3281l256.0 0l0 34.125l-216.53125 0l0 339.2031z" fill-rule="nonzero"/></g></svg>