<svg version="1.1" viewBox="0.0 0.0 960.0 720.0" fill="none" stroke="none" stroke-linecap="square" stroke-miterlimit="10" xmlns:xlink="http://www.w3.org/1999/xlink" xmlns="http://www.w3.org/2000/svg"><clipPath id="p.0"><path d="m0 0l960.0 0l0 720.0l-960.0 0l0 -720.0z" clip-rule="nonzero"/></clipPath><g clip-path="url(#p.0)"><path fill="#000000" fill-opacity="0.0" d="m0 0l960.0 0l0 720.0l-960.0 0z" fill-rule="evenodd"/><path fill="#ffffff" d="m120.0 360.0l0 0c0 -198.82251 161.17749 -360.0 360.0 -360.0l0 0c95.47797 0 187.04535 37.928463 254.55847 105.44156c67.51306 67.51309 105.44153 159.0805 105.44153 254.55844l0 0c0 198.82251 -161.17749 360.0 -360.0 360.0l0 0c-198.82251 0 -360.0 -161.17749 -360.0 -360.0z" fill-rule="evenodd"/><path stroke="#ffffff" stroke-width="1.0" stroke-linejoin="round" stroke-linecap="butt" d="m120.0 360.0l0 0c0 -198.82251 161.17749 -360.0 360.0 -360.0l0 0c95.47797 0 187.04535 37.928463 254.55847 105.44156c67.51306 67.51309 105.44153 159.0805 105.44153 254.55844l0 0c0 198.82251 -161.17749 360.0 -360.0 360.0l0 0c-198.82251 0 -360.0 -161.17749 -360.0 -360.0z" fill-rule="evenodd"/><path fill="#000000" fill-opacity="0.0" d="m166.31496 148.29921l627.3701 0l0 423.4016l-627.3701 0z" fill-rule="evenodd"/><path fill="#000000" d="m286.83704 477.29922l0 -233.32814l100.671875 0q38.984375 0 60.484375 15.67189q21.5 15.65625 21.5 44.328125q0 19.0 -8.828125 32.0q-8.828125 13.0 -24.0 19.671875q-15.171875 6.65625 -33.15625 6.65625l5.65625 -8.0q22.328125 0 38.5 6.84375q16.171875 6.828125 25.171875 20.328125q9.0 13.5 9.0 33.5q0 29.65625 -21.84375 46.0q-21.828125 16.328125 -65.828125 16.328125l-107.328125 0zm24.671875 -20.328125l82.328125 0q30.65625 0 46.984375 -10.5q16.34375 -10.5 16.34375 -33.5q0 -22.671875 -16.34375 -33.171875q-16.328125 -10.5 -46.984375 -10.5l-85.0 0l0 -20.328125l77.0 0q28.0 0 43.5 -10.671875q15.5 -10.671875 15.5 -31.65625q0 -21.34375 -15.5 -31.84375q-15.5 -10.5 -43.5 -10.5l-74.328125 0l0 192.67188zm248.65741 -100.0l123.328125 0l0 21.328125l-123.328125 0l0 -21.328125zm2.671875 120.328125l-24.671875 0l0 -233.32814l160.0 0l0 21.32814l-135.32812 0l0 212.0z" fill-rule="nonzero"/></g></svg>